<?xml version="1.0" standalone="no"?>
<!DOCTYPE svg PUBLIC "-//W3C//DTD SVG 20010904//EN"
 "http://www.w3.org/TR/2001/REC-SVG-20010904/DTD/svg10.dtd">
<svg version="1.0" xmlns="http://www.w3.org/2000/svg"
 width="633.000000pt" height="312.000000pt" viewBox="0 0 633.000000 312.000000"
 preserveAspectRatio="xMidYMid meet">

<g transform="translate(0.000000,312.000000) scale(0.100000,-0.100000)"
fill="#000000" stroke="none">
<path d="M4212 2955 c-154 -39 -242 -116 -273 -238 -10 -42 -9 -50 6 -67 10
-11 14 -26 11 -38 -5 -15 7 -37 45 -82 28 -34 58 -64 67 -66 10 -3 36 -15 60
-26 60 -28 191 -47 250 -37 134 24 205 61 273 144 27 33 40 59 44 93 4 26 9
54 11 64 3 9 0 19 -6 23 -5 3 -10 18 -10 32 0 48 -81 128 -175 172 -65 31
-230 45 -303 26z m233 -45 c3 -5 17 -10 31 -10 41 0 140 -77 164 -127 21 -45
27 -137 10 -148 -5 -3 -10 -14 -10 -24 0 -26 -61 -82 -122 -112 -126 -62 -254
-65 -378 -11 -32 14 -49 25 -107 72 -27 22 -53 85 -53 128 0 46 20 105 46 133
31 34 101 79 147 94 50 16 263 20 272 5z"/>
<path d="M1640 2920 c-117 -21 -125 -25 -203 -99 -62 -59 -87 -107 -87 -170 0
-129 122 -239 306 -277 70 -15 84 -15 155 -1 156 32 264 108 293 206 19 65 20
91 4 142 -22 75 -96 142 -200 180 -59 21 -201 32 -268 19z m210 -42 c137 -34
230 -124 230 -225 0 -18 -11 -56 -25 -83 -30 -58 -97 -108 -189 -140 -153 -52
-361 4 -440 119 -24 35 -29 52 -29 101 0 66 11 88 75 150 52 49 82 65 151 79
97 20 141 20 227 -1z"/>
<path d="M4896 2709 c-87 -14 -101 -25 -165 -125 -105 -164 -246 -244 -433
-244 -151 0 -285 63 -390 184 -26 29 -58 56 -71 58 -37 7 -1580 -10 -1623 -18
-27 -5 -57 -26 -112 -76 -124 -115 -223 -153 -397 -152 -112 1 -154 10 -247
54 -37 17 -65 38 -183 134 -26 21 -58 22 -165 6 -166 -25 -209 -29 -300 -23
-93 6 -96 5 -128 -22 -57 -48 -110 -193 -146 -400 -43 -255 -23 -853 38 -1092
42 -165 102 -278 178 -334 35 -25 50 -29 107 -29 36 0 95 -5 131 -10 36 -5
124 -10 195 -12 l130 -3 67 56 c69 57 136 94 224 126 37 13 82 17 179 18 122
0 135 -2 204 -30 121 -49 211 -149 211 -234 0 -28 1 -29 58 -33 77 -4 1228 9
1469 18 191 7 193 7 223 34 16 15 30 32 30 38 0 6 29 40 65 76 68 67 147 113
237 136 64 17 188 8 260 -18 93 -33 192 -112 243 -193 40 -62 71 -73 194 -65
174 11 268 24 461 62 189 37 216 73 254 339 36 258 41 337 41 640 0 376 -15
517 -89 820 -34 143 -75 190 -196 224 -25 7 -54 17 -65 21 -44 18 -120 40
-137 40 -10 0 -26 4 -36 9 -47 26 -219 37 -316 20z m296 -45 c71 -18 124 -49
163 -96 61 -72 159 -317 195 -488 6 -30 16 -71 20 -90 39 -154 55 -572 29
-742 -46 -308 -98 -447 -205 -554 -99 -99 -202 -126 -425 -115 l-106 6 -94 95
c-92 94 -138 125 -229 158 -62 22 -237 21 -303 -2 -64 -21 -120 -51 -136 -70
-8 -9 -19 -16 -26 -16 -7 0 -43 -34 -80 -75 -73 -82 -98 -100 -123 -90 -16 6
-16 7 1 16 9 6 17 21 17 34 0 48 20 72 74 89 73 24 80 29 72 62 -24 100 -43
148 -66 166 -14 10 -48 37 -77 59 -89 68 -78 67 -471 61 -344 -5 -353 -5 -364
-26 -11 -20 -4 -439 8 -458 8 -13 529 -1 552 13 11 7 27 9 38 5 11 -5 48 -8
84 -8 67 1 124 -14 114 -29 -3 -5 -254 -9 -572 -9 -314 0 -655 -5 -765 -11
-153 -10 -203 -9 -224 0 -16 7 -23 15 -17 21 6 6 166 11 379 12 l370 3 -3 259
c-1 150 -7 266 -13 277 -9 18 -23 19 -183 19 -199 0 -263 -9 -310 -45 -18 -14
-39 -25 -47 -26 -8 0 -36 -14 -64 -30 -27 -16 -71 -39 -97 -52 -62 -29 -68
-49 -61 -217 3 -72 2 -138 -1 -146 -4 -11 -15 -4 -43 28 -86 97 -161 144 -297
188 -56 18 -230 16 -292 -3 -86 -26 -165 -69 -224 -123 -88 -81 -97 -84 -259
-63 -183 23 -271 55 -271 99 0 19 7 20 109 20 l109 0 6 28 c23 102 16 384 -13
502 -55 222 -55 247 1 411 l42 124 -1 200 c0 134 -4 208 -12 223 -11 21 -17
22 -160 22 -110 0 -150 -3 -154 -12 -4 -12 3 -421 19 -1132 6 -254 5 -298 -7
-294 -8 2 -24 24 -36 49 -20 42 -22 67 -32 454 -20 743 -16 838 43 957 54 109
138 161 307 188 133 21 152 16 258 -73 103 -87 222 -127 376 -127 159 0 286
48 398 151 36 32 69 59 75 59 5 0 12 -75 16 -172 4 -98 13 -184 19 -197 8 -17
60 -49 162 -102 l150 -78 194 0 c167 -1 197 1 213 16 16 15 18 36 18 260 0
149 -4 252 -10 264 -10 18 -25 19 -371 19 -238 0 -358 3 -354 10 8 14 855 14
855 0 0 -5 -10 -10 -22 -10 -44 0 -45 -7 -37 -170 4 -85 8 -204 8 -263 1 -127
-3 -123 116 -120 44 0 161 2 260 2 99 0 230 4 290 7 l110 7 30 40 c17 22 39
45 50 51 44 24 95 104 95 148 0 13 7 41 15 64 21 62 11 84 -38 84 -34 0 -46 6
-79 40 -33 35 -38 47 -38 87 0 42 1 44 18 32 9 -8 24 -23 32 -34 62 -85 179
-156 299 -181 83 -18 110 -17 191 0 169 37 278 108 386 253 29 40 64 79 77 87
52 35 250 46 349 20z m308 -107 c38 -18 50 -32 77 -87 17 -36 32 -74 32 -85 1
-12 5 -25 11 -31 5 -5 14 -41 21 -79 6 -39 15 -95 20 -125 12 -64 29 -236 30
-298 1 -23 5 -44 9 -47 14 -9 -6 -492 -30 -725 -6 -52 -10 -111 -10 -130 0
-38 -27 -164 -41 -192 -5 -10 -9 -23 -9 -30 0 -12 -68 -62 -117 -87 -26 -13
-70 -14 -77 -2 -3 5 12 31 34 57 60 73 114 192 148 329 5 22 16 63 23 90 23
91 32 208 32 400 -1 224 -21 411 -53 480 -5 11 -11 40 -13 65 -6 66 -27 164
-38 175 -5 5 -9 19 -9 31 0 13 -4 25 -9 28 -4 3 -11 20 -15 38 -7 35 -68 166
-98 209 -30 45 8 53 82 16z m-2195 -36 c-32 -12 -125 -13 -125 -1 0 6 28 10
73 9 45 0 65 -3 52 -8z m-2511 -56 c18 -14 18 -16 -4 -72 -13 -32 -29 -65 -37
-74 -7 -8 -13 -23 -13 -31 0 -9 -6 -21 -13 -27 -8 -6 -20 -30 -27 -53 -8 -24
-18 -49 -23 -55 -9 -12 -1 -609 8 -624 2 -3 5 -140 6 -304 1 -199 6 -305 13
-319 16 -30 61 -97 85 -126 11 -14 21 -31 21 -37 0 -7 11 -20 25 -29 25 -16
33 -48 16 -59 -21 -12 -92 39 -136 98 -25 33 -45 66 -45 73 0 7 -9 28 -19 46
-11 18 -24 56 -30 83 -5 28 -17 79 -26 115 -25 98 -36 238 -41 525 -6 329 8
473 64 686 24 91 99 199 138 199 11 0 27 -7 38 -15z m1861 6 c155 3 222 2 249
-5 20 -5 21 -10 19 -147 -1 -77 -3 -143 -5 -145 -2 -2 -151 -6 -331 -10 -272
-5 -327 -4 -331 7 -11 34 -15 278 -5 285 6 3 54 8 106 10 52 1 98 6 101 9 4 4
23 3 42 0 19 -4 89 -6 155 -4z m590 0 c28 2 165 4 305 4 l255 0 5 -33 c7 -47
51 -96 98 -110 48 -15 56 -31 40 -86 -20 -73 9 -68 -462 -73 l-426 -4 -2 53
c-1 55 -1 136 1 198 1 31 5 37 34 47 17 6 48 8 67 5 19 -3 58 -4 85 -1z
m-2178 -266 c5 -45 6 -67 4 -100 -1 -16 1 -73 5 -125 8 -112 2 -122 -89 -146
-30 -8 -68 -21 -83 -29 -50 -26 -64 -20 -64 25 0 25 5 40 13 40 15 0 120 52
142 70 12 10 15 39 15 157 l0 144 27 -3 c21 -2 27 -9 30 -33z m-108 -18 c8
-10 7 -18 -2 -31 -18 -24 -90 -19 -95 7 -6 30 75 50 97 24z m2931 -55 c0 -16
-117 -121 -141 -127 -13 -3 -170 -4 -349 -3 l-325 3 -6 50 c-3 28 -2 55 3 62
12 16 54 17 471 21 199 2 347 -1 347 -6z m-982 -11 c14 -7 16 -20 14 -65 l-4
-56 -101 -2 c-208 -5 -275 -3 -298 9 -13 6 -64 30 -112 53 -49 24 -85 46 -80
51 5 5 116 10 248 12 132 1 257 3 278 5 21 1 46 -2 55 -7z m-1946 -87 c3 -49
0 -59 -20 -75 -34 -27 -63 -34 -73 -18 -10 16 -12 133 -2 142 3 4 25 7 49 7
l42 0 4 -56z m98 -241 c0 -10 -4 -24 -9 -32 -7 -11 -10 -9 -16 8 -7 22 0 41
16 41 5 0 9 -8 9 -17z m-184 -70 c-4 -16 -10 -40 -13 -56 -10 -51 -23 -39 -23
22 0 55 2 61 21 61 18 0 20 -4 15 -27z m150 -30 c-11 -11 -19 6 -11 24 8 17 8
17 12 0 3 -10 2 -21 -1 -24z m-129 -75 c-3 -8 -6 -5 -6 6 -1 11 2 17 5 13 3
-3 4 -12 1 -19z m-17 -80 c0 -26 -4 -38 -8 -30 -8 12 -4 72 4 72 2 0 4 -19 4
-42z m17 -140 c-2 -13 -4 -3 -4 22 0 25 2 35 4 23 2 -13 2 -33 0 -45z m-37
-29 c0 -16 -4 -29 -10 -29 -5 0 -10 16 -10 36 0 21 4 33 10 29 6 -3 10 -19 10
-36z m67 -46 c-3 -10 -5 -4 -5 12 0 17 2 24 5 18 2 -7 2 -21 0 -30z m39 -85
c59 -24 84 -39 88 -53 2 -11 3 -74 0 -140 -2 -66 -4 -140 -4 -164 0 -24 -3
-42 -6 -39 -3 4 -7 62 -9 130 -2 67 -4 132 -4 143 -1 14 -15 26 -48 39 -111
46 -153 82 -126 109 10 11 21 9 109 -25z m-6 -124 c29 -25 31 -30 28 -88 -3
-55 -5 -61 -27 -64 -12 -2 -34 -1 -47 2 -23 6 -24 10 -24 91 0 77 2 85 19 85
11 0 34 -12 51 -26z m2020 -84 c0 -55 -2 -61 -25 -70 -30 -11 -595 -13 -595
-1 0 4 44 31 98 60 53 29 104 56 112 61 8 5 104 9 213 9 l197 1 0 -60z m826
-11 c9 -10 22 -19 28 -19 6 -1 28 -16 49 -34 l38 -34 -28 -6 c-15 -3 -201 -4
-413 -3 l-385 2 -1 43 c0 23 3 45 8 48 6 4 62 8 126 11 65 3 118 6 119 7 1 1
101 2 222 3 205 1 221 0 237 -18z m-2814 -129 c6 -37 3 -40 -38 -40 -50 0 -64
9 -64 41 0 28 2 29 49 29 47 0 49 -1 53 -30z m1990 -32 c1 -35 1 -91 0 -126
-2 -37 1 -69 8 -77 21 -26 -24 -36 -153 -35 -67 1 -213 -2 -324 -6 -155 -6
-206 -4 -217 5 -11 10 -16 37 -16 109 -1 54 -2 111 -3 129 -1 60 -9 59 363 62
l340 2 2 -63z m997 -11 c7 -23 14 -47 17 -52 2 -6 -19 -19 -47 -30 -53 -21
-83 -52 -94 -98 -4 -14 -14 -28 -23 -31 -29 -8 -721 -16 -725 -8 -3 4 -6 59
-8 122 l-4 115 210 10 c116 6 312 11 436 12 l227 3 11 -43z m-3089 -31 c0 -11
-19 -15 -25 -6 -3 5 1 10 9 10 9 0 16 -2 16 -4z"/>
<path d="M5063 2358 c-4 -7 -8 -94 -8 -193 0 -148 3 -182 15 -192 10 -8 58
-12 146 -13 106 0 134 3 144 15 17 20 8 319 -10 340 -6 7 -37 16 -68 20 -31 3
-73 10 -92 15 -68 18 -118 21 -127 8z m182 -58 c11 -5 31 -10 45 -12 20 -2 25
-8 25 -33 l0 -30 -106 -3 -106 -3 -6 36 c-10 58 -4 64 66 58 34 -2 71 -8 82
-13z m74 -142 c14 -36 -7 -48 -89 -52 -41 -3 -86 -6 -100 -8 -21 -2 -26 2 -28
25 -6 54 -1 57 108 57 95 0 101 -1 109 -22z m1 -107 c23 -43 5 -51 -111 -51
l-109 0 0 28 c0 16 3 32 7 35 3 4 50 7 104 7 87 0 100 -2 109 -19z"/>
<path d="M4382 2173 c-181 -3 -224 -6 -228 -18 -3 -7 2 -53 10 -102 16 -88 27
-159 47 -325 25 -204 7 -557 -34 -677 -25 -70 -23 -71 131 -67 76 2 143 4 150
5 6 0 20 0 30 0 9 -1 105 1 212 2 194 4 195 4 234 31 44 32 83 75 92 101 3 9
9 17 14 17 4 0 10 10 13 23 6 27 26 83 41 116 14 31 14 460 -1 469 -5 4 -9 30
-9 58 0 32 -7 62 -17 77 -9 15 -17 38 -17 52 0 53 -101 179 -175 218 -46 24
-107 26 -493 20z m459 -48 c79 -28 171 -145 185 -236 8 -51 -9 -56 -30 -9 -34
79 -149 159 -227 160 -13 0 -33 7 -43 15 -26 20 -135 19 -201 0 -96 -28 -175
-76 -215 -130 -20 -27 -40 -58 -44 -68 -19 -55 -47 36 -62 208 l-6 61 113 2
c62 1 115 4 117 7 2 2 86 4 186 5 142 0 192 -3 227 -15z m-28 -134 c152 -71
208 -200 136 -313 -34 -52 -82 -98 -104 -98 -8 0 -31 -10 -51 -22 -58 -34
-198 -38 -290 -7 -73 24 -119 51 -144 83 -86 112 -81 212 15 301 68 63 133 83
268 84 98 1 113 -1 170 -28z m246 -266 c15 -110 17 -375 2 -402 -6 -12 -11
-33 -11 -47 0 -39 -48 -132 -94 -180 -39 -42 -87 -63 -141 -64 -11 0 -149 -3
-306 -7 -169 -5 -288 -4 -291 1 -3 5 1 32 8 59 23 82 44 320 38 435 -3 57 -7
107 -10 111 -2 4 0 17 4 30 l9 22 21 -23 c12 -13 22 -27 22 -31 0 -12 117 -99
132 -99 8 0 18 -4 24 -9 5 -4 44 -16 87 -26 67 -16 86 -16 135 -6 31 7 72 15
91 18 35 6 127 58 168 96 34 31 70 106 78 165 4 30 11 50 15 45 4 -4 13 -44
19 -88z"/>
<path d="M4035 2103 c-16 -8 -39 -23 -50 -33 -11 -10 -35 -26 -54 -36 -99 -55
-153 -96 -148 -113 3 -9 15 -41 26 -71 40 -105 51 -175 51 -335 0 -102 -5
-169 -14 -197 -38 -121 -40 -130 -30 -146 6 -10 50 -37 100 -61 49 -24 97 -47
106 -52 45 -23 55 -13 67 69 7 42 13 93 14 112 2 19 6 41 11 49 5 7 12 45 17
85 19 158 22 239 10 324 -42 298 -59 402 -70 414 -3 3 -19 0 -36 -9z m18 -100
c4 -32 14 -92 22 -133 9 -41 20 -111 24 -155 4 -44 12 -93 16 -109 7 -26 -4
-122 -25 -206 -8 -31 -14 -73 -38 -255 -6 -43 -10 -50 -27 -47 -11 2 -31 11
-45 20 -27 18 -85 46 -113 56 -19 6 -18 37 4 111 14 50 39 228 39 280 0 28 -7
75 -15 105 -8 30 -15 69 -15 86 0 17 -11 57 -24 90 -27 65 -22 88 19 104 13 5
26 13 29 18 3 6 24 19 47 31 22 12 50 30 61 41 12 11 25 20 28 20 4 0 10 -26
13 -57z"/>
<path d="M1979 2066 c-3 -3 -46 -10 -97 -17 -51 -6 -92 -15 -92 -19 0 -4 -35
-10 -77 -13 -43 -4 -112 -11 -153 -17 -41 -5 -118 -16 -171 -23 -123 -16 -159
-39 -199 -122 -16 -33 -36 -71 -44 -85 -15 -27 -26 -64 -51 -181 -14 -66 -15
-88 -5 -155 7 -44 19 -89 26 -101 8 -12 14 -28 14 -34 0 -21 91 -140 116 -151
13 -6 24 -14 24 -18 0 -20 111 -54 195 -61 79 -6 171 -17 465 -59 41 -5 92
-10 113 -10 l37 0 0 73 c-1 39 -5 117 -10 172 -5 58 -5 106 0 116 5 9 6 19 3
23 -3 3 -8 153 -10 333 -2 181 -6 334 -8 341 -4 11 -66 18 -76 8z m33 -156 c4
-58 12 -267 18 -464 9 -302 8 -362 -3 -373 -18 -18 -85 -20 -227 -5 -258 26
-380 45 -444 69 -96 35 -165 110 -207 225 -24 67 -26 206 -3 286 25 90 93 221
128 246 35 26 152 51 401 87 44 6 118 17 165 24 47 7 103 12 125 11 l40 -1 7
-105z"/>
<path d="M2103 2054 c-6 -17 4 -709 12 -819 7 -91 7 -81 4 -153 -1 -34 2 -67
8 -73 13 -13 71 6 200 66 52 25 101 45 108 45 7 0 22 8 34 18 22 18 21 32 -10
107 -24 59 -39 114 -39 150 0 22 -5 58 -11 80 -16 58 6 269 38 363 19 58 22
76 13 88 -7 7 -17 14 -22 14 -10 0 -68 23 -101 41 -9 5 -39 16 -65 25 -52 17
-84 30 -124 50 -33 18 -37 17 -45 -2z m110 -68 c18 -8 54 -22 80 -32 26 -9 50
-21 53 -25 3 -5 14 -9 25 -9 37 0 43 -38 20 -134 -29 -122 -29 -322 0 -438 11
-46 25 -101 30 -122 5 -22 7 -46 5 -53 -6 -15 -156 -88 -223 -108 -36 -11 -43
-10 -47 2 -3 8 -6 130 -7 271 0 141 -4 345 -8 452 -5 107 -6 198 -4 203 7 11
42 8 76 -7z"/>
<path d="M3015 1856 c-165 -49 -262 -128 -306 -248 -31 -85 -20 -164 35 -244
59 -87 213 -174 308 -174 20 0 47 -4 60 -9 39 -14 167 7 263 44 101 39 166 92
210 170 35 63 36 177 2 250 -24 49 -111 138 -152 155 -11 4 -41 17 -65 28 -94
41 -264 55 -355 28z m269 -47 c261 -72 369 -290 221 -448 -94 -100 -266 -154
-421 -131 -133 19 -210 55 -276 128 -49 54 -68 102 -68 169 0 121 109 234 268
278 59 17 222 19 276 4z"/>
<path d="M5090 1110 c-13 -8 -13 -13 -2 -31 10 -15 11 -24 3 -32 -14 -14 -14
-68 0 -103 7 -20 7 -42 0 -74 -6 -25 -7 -60 -3 -79 9 -39 31 -48 186 -76 129
-24 127 -27 122 144 -2 69 -4 156 -5 194 l-1 67 -142 0 c-79 0 -150 -5 -158
-10z m250 -35 c10 -12 10 -22 2 -39 -10 -22 -18 -24 -99 -28 -103 -5 -109 -4
-117 25 -9 35 11 46 92 50 43 1 84 4 93 5 9 1 22 -5 29 -13z m8 -137 c4 -38
-29 -50 -132 -46 -76 3 -81 4 -84 26 -7 45 13 53 117 50 l96 -3 3 -27z m4
-113 c8 -19 8 -31 0 -50 -11 -24 -15 -25 -64 -19 -29 4 -57 10 -62 15 -6 5
-24 9 -41 9 -37 0 -55 16 -55 47 0 23 2 23 105 23 103 0 106 -1 117 -25z"/>
<path d="M4233 753 c-26 -13 -53 -23 -60 -23 -37 0 -123 -75 -155 -135 -15
-29 -21 -58 -21 -105 -1 -73 11 -102 68 -168 33 -38 61 -55 150 -92 28 -12 88
-24 100 -21 6 2 44 2 86 2 71 -2 135 12 199 42 35 16 114 97 136 138 19 36 29
145 13 154 -5 4 -9 14 -9 24 0 49 -135 169 -182 162 -10 -1 -18 2 -18 8 0 14
-103 34 -187 35 -57 1 -83 -4 -120 -21z m267 -39 c104 -37 149 -67 185 -125
20 -31 25 -52 25 -107 l0 -69 -56 -61 c-31 -34 -63 -62 -73 -62 -9 0 -21 -4
-27 -10 -14 -14 -110 -31 -184 -31 -123 -1 -253 51 -291 117 -57 95 -62 130
-29 194 42 81 101 128 210 163 37 13 196 6 240 -9z"/>
<path d="M1695 736 c-73 -16 -177 -71 -224 -118 -42 -43 -71 -109 -71 -164 0
-42 25 -110 54 -149 68 -89 343 -161 460 -121 146 50 212 108 250 223 16 50
16 55 -1 109 -35 113 -150 194 -312 220 -47 8 -90 13 -96 13 -5 -1 -33 -7 -60
-13z m204 -47 c109 -34 159 -67 204 -134 22 -33 27 -51 27 -103 0 -53 -4 -69
-26 -97 -33 -44 -112 -94 -178 -114 -67 -20 -249 -26 -290 -10 -63 24 -126 72
-156 116 -26 41 -30 55 -30 118 0 70 1 74 40 117 36 42 104 83 175 106 42 14
191 14 234 1z"/>
</g>
</svg>
