<?xml version="1.0" standalone="no"?>
<!DOCTYPE svg PUBLIC "-//W3C//DTD SVG 20010904//EN"
 "http://www.w3.org/TR/2001/REC-SVG-20010904/DTD/svg10.dtd">
<svg version="1.0" xmlns="http://www.w3.org/2000/svg"
 width="900.000000pt" height="900.000000pt" viewBox="0 0 900.000000 900.000000"
 preserveAspectRatio="xMidYMid meet">
<metadata>
Created by potrace 1.10, written by Peter Selinger 2001-2011
</metadata>
<g transform="translate(0.000000,900.000000) scale(0.100000,-0.100000)"
fill="#2aa1d9" stroke="none">
<path d="M4200 7869 c-25 -5 -88 -13 -140 -18 -53 -4 -106 -13 -117 -20 -12
-6 -43 -11 -70 -11 -26 0 -61 -7 -77 -15 -15 -8 -45 -15 -65 -15 -21 0 -46 -7
-57 -15 -10 -8 -35 -15 -55 -15 -19 0 -44 -7 -55 -15 -10 -8 -33 -15 -50 -15
-17 0 -37 -7 -44 -15 -7 -8 -25 -15 -39 -15 -15 0 -36 -7 -47 -15 -10 -8 -28
-15 -40 -15 -11 0 -29 -7 -40 -15 -10 -8 -29 -15 -40 -15 -12 0 -27 -7 -34
-15 -7 -8 -23 -15 -35 -15 -12 0 -28 -7 -35 -15 -7 -8 -23 -15 -35 -15 -12 0
-28 -7 -35 -15 -7 -8 -20 -15 -30 -15 -10 0 -23 -7 -30 -15 -7 -8 -21 -15 -31
-15 -10 0 -20 -4 -24 -9 -3 -6 -29 -21 -58 -36 -28 -14 -65 -34 -82 -45 -16
-11 -39 -24 -50 -30 -11 -6 -33 -19 -50 -30 -16 -11 -40 -24 -52 -30 -13 -5
-23 -14 -23 -19 0 -5 -8 -12 -17 -15 -35 -13 -73 -37 -73 -47 0 -5 -5 -9 -11
-9 -11 0 -84 -53 -104 -75 -5 -6 -39 -33 -75 -60 -126 -95 -387 -356 -484
-483 -26 -34 -61 -77 -77 -94 -16 -18 -29 -37 -29 -43 0 -6 -12 -23 -28 -40
-29 -32 -48 -60 -58 -87 -3 -10 -10 -18 -15 -18 -5 0 -14 -10 -19 -22 -6 -13
-19 -36 -30 -53 -11 -16 -24 -39 -30 -50 -6 -11 -19 -33 -30 -50 -11 -16 -31
-52 -45 -80 -27 -52 -38 -74 -55 -102 -6 -10 -13 -25 -16 -33 -3 -8 -12 -27
-20 -42 -8 -14 -14 -33 -14 -41 0 -8 -7 -20 -15 -27 -8 -7 -15 -23 -15 -35 0
-12 -7 -28 -15 -35 -8 -7 -15 -22 -15 -34 0 -11 -7 -30 -15 -40 -8 -11 -15
-29 -15 -40 0 -12 -7 -30 -15 -40 -8 -11 -15 -31 -15 -45 0 -14 -7 -35 -15
-45 -8 -11 -15 -34 -15 -52 0 -17 -7 -37 -15 -44 -8 -7 -15 -29 -15 -49 0 -20
-7 -45 -15 -55 -8 -11 -15 -39 -15 -62 0 -23 -7 -55 -15 -70 -8 -16 -15 -51
-15 -77 0 -27 -5 -58 -12 -70 -7 -12 -15 -62 -19 -112 -4 -49 -12 -115 -18
-145 -13 -71 -13 -549 0 -620 6 -30 14 -95 18 -145 4 -49 12 -100 19 -112 7
-12 12 -43 12 -70 0 -26 7 -61 15 -77 8 -15 15 -47 15 -70 0 -23 7 -51 15 -62
8 -10 15 -35 15 -55 0 -20 7 -42 15 -49 8 -7 15 -27 15 -44 0 -18 7 -41 15
-52 8 -10 15 -31 15 -45 0 -14 7 -34 15 -45 8 -10 15 -28 15 -40 0 -11 7 -29
15 -40 8 -10 15 -29 15 -40 0 -12 7 -27 15 -34 8 -7 15 -23 15 -35 0 -12 7
-28 15 -35 8 -7 15 -19 15 -27 0 -13 15 -48 41 -93 5 -8 12 -22 15 -30 3 -8 9
-22 14 -30 5 -8 21 -37 35 -65 14 -27 34 -63 45 -80 11 -16 24 -39 30 -50 6
-11 19 -33 30 -50 11 -16 24 -40 30 -52 5 -13 14 -23 19 -23 5 0 12 -8 15 -17
10 -28 29 -56 59 -88 15 -17 27 -34 27 -40 0 -6 13 -25 29 -43 16 -17 51 -60
77 -94 96 -125 357 -386 482 -482 34 -26 77 -61 94 -77 18 -16 37 -29 43 -29
6 0 23 -12 40 -27 32 -30 60 -49 88 -59 9 -3 17 -10 17 -15 0 -5 10 -14 23
-19 12 -6 36 -19 52 -30 17 -11 39 -24 50 -30 11 -6 34 -19 50 -30 17 -11 54
-31 82 -45 29 -15 55 -30 58 -36 4 -5 14 -9 24 -9 10 0 24 -7 31 -15 7 -8 20
-15 30 -15 10 0 23 -7 30 -15 7 -8 21 -15 32 -15 11 0 26 -7 34 -15 9 -8 26
-15 38 -15 13 0 29 -7 36 -15 7 -8 22 -15 34 -15 11 0 30 -7 40 -15 11 -8 30
-15 42 -15 12 0 27 -7 34 -15 7 -8 27 -15 44 -15 17 0 40 -7 50 -15 11 -8 31
-15 45 -15 14 0 35 -7 45 -15 11 -8 36 -15 55 -15 20 0 45 -7 55 -15 11 -8 36
-15 57 -15 20 0 50 -7 65 -15 16 -8 51 -15 77 -15 27 0 58 -5 70 -11 11 -7 64
-16 117 -20 52 -5 118 -13 145 -18 65 -13 575 -13 640 0 28 5 91 13 140 18 50
4 100 13 112 19 12 7 43 12 70 12 26 0 61 7 77 15 15 8 45 15 65 15 21 0 46 7
57 15 10 8 35 15 55 15 19 0 44 7 55 15 10 8 33 15 50 15 17 0 37 7 44 15 7 8
27 15 45 15 18 0 38 7 45 15 7 8 25 15 40 15 15 0 33 7 40 15 7 8 23 15 35 15
12 0 28 7 35 15 7 8 21 15 32 15 18 0 49 14 98 41 8 5 22 12 30 15 8 3 22 10
30 15 8 5 22 12 30 15 8 3 22 10 30 15 8 5 22 12 30 15 8 3 22 10 30 15 8 5
27 14 43 20 15 6 27 15 27 20 0 5 6 9 14 9 7 0 19 7 26 15 7 8 21 15 32 15 10
0 21 6 24 14 3 8 13 17 22 20 9 4 26 12 37 19 11 7 44 28 73 46 28 18 52 37
52 42 0 5 5 9 11 9 11 0 125 84 144 106 6 6 18 15 27 20 61 32 445 416 504
503 13 20 46 63 74 96 27 33 49 66 50 73 0 6 4 12 9 12 9 0 81 107 81 121 0 5
4 9 10 9 5 0 12 11 16 24 3 14 12 27 20 30 8 3 14 12 14 21 0 8 14 34 30 57
17 22 30 47 30 53 0 7 7 18 15 25 8 7 15 20 15 30 0 10 7 20 15 24 8 3 15 16
15 30 0 13 7 26 15 30 8 3 15 16 15 29 0 14 7 30 15 37 8 7 15 18 15 25 0 8 8
28 17 47 9 18 22 45 30 60 7 14 13 34 13 43 0 9 7 23 15 31 8 9 15 28 15 43 0
16 7 34 15 41 8 7 15 24 15 39 0 14 7 35 15 45 8 11 15 34 15 50 0 17 7 40 15
50 8 11 15 32 15 47 0 15 7 40 15 55 8 16 15 47 15 69 0 22 7 49 15 59 9 11
15 41 15 69 0 26 5 58 11 69 7 12 15 62 20 112 5 50 13 114 18 141 5 28 10
178 10 335 0 157 -5 308 -10 335 -5 28 -13 91 -18 141 -5 50 -13 100 -20 112
-6 11 -11 43 -11 69 0 28 -6 58 -15 69 -8 10 -15 40 -15 65 0 25 -7 54 -15 65
-8 10 -15 33 -15 50 0 16 -7 39 -15 50 -8 10 -15 33 -15 50 0 16 -7 39 -15 50
-8 10 -15 31 -15 45 0 15 -7 32 -15 39 -8 7 -15 25 -15 40 0 15 -7 33 -15 40
-8 7 -15 21 -15 32 0 11 -6 32 -13 46 -8 15 -21 42 -30 60 -9 19 -17 39 -17
47 0 7 -7 18 -15 25 -8 7 -15 21 -15 31 0 9 -7 24 -15 33 -8 8 -15 24 -15 36
0 11 -7 23 -15 26 -8 4 -15 14 -15 24 0 10 -7 23 -15 30 -8 7 -15 18 -15 25 0
6 -13 31 -30 53 -16 23 -30 49 -30 57 0 9 -7 18 -15 21 -8 4 -15 11 -15 17 0
15 -102 167 -112 167 -4 0 -8 5 -8 11 0 6 -21 37 -47 70 -27 33 -58 74 -71 92
-75 104 -428 460 -501 504 -14 9 -30 22 -36 28 -20 22 -134 105 -144 105 -6 0
-11 4 -11 9 0 8 -25 26 -125 88 -11 7 -27 15 -35 19 -8 4 -19 13 -23 21 -4 7
-15 13 -23 13 -9 0 -30 11 -47 24 -18 14 -43 29 -57 35 -14 6 -33 15 -42 21
-10 5 -26 15 -35 20 -10 6 -25 13 -33 16 -8 3 -22 10 -30 15 -8 5 -22 12 -30
15 -8 3 -22 10 -30 15 -8 5 -22 12 -30 15 -26 10 -84 36 -113 50 -16 8 -37 14
-47 14 -9 0 -23 7 -30 15 -7 8 -25 15 -40 15 -15 0 -33 7 -40 15 -7 8 -27 15
-45 15 -18 0 -38 7 -45 15 -7 8 -27 15 -44 15 -17 0 -40 7 -50 15 -11 8 -36
15 -55 15 -20 0 -45 7 -55 15 -11 8 -36 15 -57 15 -20 0 -50 7 -65 15 -16 8
-51 15 -77 15 -27 0 -58 5 -70 12 -12 7 -62 15 -112 19 -49 4 -112 12 -140 18
-61 12 -582 12 -645 0z m695 -94 c265 -43 352 -59 390 -70 22 -7 74 -21 115
-30 41 -10 94 -27 118 -37 24 -10 52 -18 62 -18 10 0 67 -21 127 -46 59 -26
137 -59 173 -74 121 -52 200 -93 306 -159 36 -23 68 -41 71 -41 3 0 49 -30
102 -66 141 -96 166 -114 169 -125 2 -5 28 -25 57 -44 29 -20 97 -78 151 -130
54 -52 102 -95 106 -95 4 0 19 -17 35 -37 15 -21 59 -70 98 -108 38 -39 84
-88 100 -109 17 -21 45 -55 63 -76 17 -20 32 -40 32 -44 0 -4 19 -32 43 -64
23 -31 51 -71 62 -89 11 -18 43 -70 71 -115 50 -80 101 -172 149 -268 102
-205 224 -550 255 -725 4 -22 15 -74 23 -115 9 -41 21 -115 26 -163 6 -48 13
-92 17 -98 3 -6 6 -149 5 -318 -1 -271 -4 -328 -26 -482 -14 -96 -34 -210 -45
-254 -11 -44 -20 -90 -20 -102 0 -12 -4 -24 -9 -27 -5 -3 -12 -22 -16 -43 -15
-80 -110 -341 -170 -468 -84 -178 -163 -325 -190 -355 -13 -14 -26 -35 -29
-47 -9 -30 -75 -125 -98 -141 -10 -7 -18 -18 -18 -23 0 -6 -9 -23 -20 -37 -12
-15 -41 -54 -65 -86 -95 -127 -386 -426 -414 -426 -6 0 -11 -6 -11 -13 0 -15
-74 -76 -205 -169 -44 -31 -97 -71 -119 -87 -21 -17 -43 -31 -49 -31 -5 0 -26
-12 -46 -27 -19 -15 -49 -35 -66 -44 -16 -8 -59 -34 -95 -56 -36 -22 -112 -61
-170 -87 -58 -26 -118 -54 -135 -62 -68 -30 -128 -54 -140 -54 -7 0 -26 -7
-41 -15 -16 -8 -38 -15 -50 -15 -11 0 -24 -4 -30 -9 -9 -10 -76 -29 -262 -77
-90 -22 -236 -48 -427 -75 -101 -14 -538 -19 -599 -6 -21 4 -55 8 -75 8 -38 1
-284 40 -367 59 -139 31 -437 128 -574 187 -313 133 -512 254 -830 505 -53 42
-119 102 -146 132 -27 31 -54 56 -61 56 -7 0 -40 33 -74 73 -34 39 -80 90
-101 112 -21 22 -38 43 -38 47 0 4 -20 30 -45 58 -25 28 -45 55 -45 60 0 6
-14 22 -30 37 -17 14 -30 32 -30 38 0 7 -7 18 -15 25 -14 12 -50 64 -143 210
-64 100 -194 371 -263 545 -20 51 -89 274 -112 360 -18 69 -61 317 -77 450
-14 116 -15 528 -1 670 24 240 74 466 163 730 22 66 43 125 48 130 4 6 13 28
20 50 30 95 163 349 260 499 8 13 34 54 57 92 69 115 270 361 373 458 30 28
79 76 110 108 61 63 245 219 288 246 16 9 44 30 63 45 48 40 87 65 224 145
119 70 313 172 327 172 4 0 40 15 80 34 80 37 168 71 238 91 25 7 63 21 85 30
22 10 49 19 60 20 40 6 161 34 187 44 31 12 353 59 488 71 140 13 477 4 595
-15z"/>
<path d="M3880 6070 c-14 -4 -42 -8 -63 -9 -59 -2 -218 -48 -298 -87 -128 -62
-188 -103 -282 -194 -138 -132 -211 -241 -278 -410 -50 -127 -67 -146 -164
-178 -70 -22 -235 -107 -315 -160 -91 -61 -263 -246 -314 -337 -9 -17 -20 -37
-25 -45 -26 -43 -61 -122 -61 -138 0 -10 -4 -22 -9 -27 -5 -6 -14 -30 -19 -55
-6 -25 -16 -63 -22 -85 -20 -70 -24 -309 -6 -426 15 -104 62 -250 108 -334 32
-60 106 -173 119 -180 5 -4 24 -25 40 -48 56 -78 238 -213 362 -269 45 -21 89
-38 98 -38 9 0 19 -3 23 -7 10 -11 91 -31 170 -43 47 -7 570 -10 1570 -9 1573
1 1686 1 1751 14 83 15 304 100 325 124 3 4 25 19 49 35 25 16 87 71 138 124
78 80 101 111 147 201 30 58 66 149 80 201 23 82 26 115 26 243 0 129 -3 160
-26 239 -56 201 -113 292 -323 523 -49 53 -60 102 -71 310 -9 168 -29 290 -59
365 -11 25 -27 65 -37 90 -39 92 -142 229 -259 343 -38 37 -179 131 -254 168
-88 44 -255 90 -338 93 -17 0 -34 4 -37 7 -12 12 -222 -3 -306 -23 -86 -20
-251 -78 -272 -95 -7 -7 -27 -17 -42 -23 -16 -6 -43 -22 -60 -36 -73 -61 -180
-134 -197 -134 -10 0 -22 6 -26 13 -4 7 -18 19 -30 27 -11 8 -50 35 -85 60
-175 126 -363 195 -556 205 -53 3 -108 7 -122 9 -14 2 -36 1 -50 -4z m260 -95
c23 -8 57 -15 74 -15 17 0 40 -7 50 -15 11 -8 28 -15 37 -15 10 0 30 -7 46
-15 15 -7 48 -23 73 -35 119 -55 287 -195 311 -258 7 -18 12 -21 27 -13 11 6
26 21 35 35 27 40 163 166 180 166 3 0 23 12 44 26 21 14 47 30 58 35 11 5 27
13 35 17 48 27 84 42 99 42 9 0 26 7 37 15 10 8 33 15 49 15 17 0 52 7 79 15
66 20 274 20 340 0 27 -8 63 -15 80 -15 17 0 40 -7 50 -15 11 -8 28 -15 37
-15 10 0 30 -7 46 -14 15 -8 35 -18 43 -21 8 -3 29 -14 45 -25 17 -11 37 -23
45 -27 8 -3 17 -9 20 -12 3 -3 23 -18 45 -33 90 -62 224 -210 275 -304 11 -21
25 -46 30 -54 5 -8 11 -22 14 -30 3 -8 10 -22 15 -30 15 -26 33 -84 41 -130 4
-25 12 -58 19 -73 7 -18 11 -99 11 -221 0 -153 3 -196 15 -212 8 -10 15 -27
15 -36 0 -10 45 -64 100 -121 55 -57 112 -119 125 -138 13 -19 28 -38 33 -44
4 -5 18 -31 31 -57 12 -27 27 -50 32 -54 5 -3 9 -14 9 -26 0 -11 6 -32 14 -46
32 -63 40 -119 40 -287 0 -168 -8 -224 -40 -287 -8 -14 -14 -35 -14 -46 0 -12
-4 -23 -9 -26 -5 -4 -19 -27 -32 -54 -12 -26 -29 -51 -36 -55 -7 -4 -13 -13
-13 -18 0 -15 -32 -55 -98 -122 -57 -59 -122 -107 -200 -147 -23 -12 -45 -26
-48 -31 -3 -5 -15 -9 -28 -9 -12 0 -31 -7 -42 -15 -10 -8 -29 -15 -42 -15 -12
0 -38 -7 -58 -15 -30 -12 -266 -14 -1698 -16 -1505 -1 -1666 1 -1694 15 -17 9
-44 16 -59 16 -15 0 -37 7 -47 15 -11 8 -27 15 -35 15 -12 0 -101 42 -178 84
-71 39 -202 163 -272 256 -65 88 -73 100 -101 160 -12 25 -27 56 -35 70 -7 14
-16 40 -20 57 -3 18 -11 35 -16 38 -5 4 -9 21 -9 39 0 19 -7 50 -15 69 -21 52
-21 339 0 390 8 20 15 51 15 69 0 18 7 42 15 52 8 11 15 28 15 39 0 10 6 31
14 45 8 15 24 47 36 72 62 131 171 262 300 358 85 64 106 78 137 91 11 6 24
15 28 20 3 6 17 11 29 11 13 0 29 7 36 15 7 8 22 15 34 15 12 0 31 7 42 15 10
8 33 15 49 15 17 1 52 7 80 14 48 13 50 15 57 54 4 23 12 50 17 61 6 11 11 31
11 45 0 13 7 37 15 53 7 15 24 48 35 73 12 25 30 59 41 75 10 17 23 40 28 52
13 28 203 221 256 259 100 73 245 138 342 155 28 5 62 13 75 18 39 16 280 13
328 -4z"/>
<path d="M3855 5585 c-22 -8 -48 -15 -58 -15 -37 0 -177 -87 -232 -144 -69
-71 -155 -215 -155 -260 0 -17 7 -18 93 -12 129 8 643 10 656 1 14 -8 5 -67
-15 -107 -8 -15 -14 -38 -14 -51 0 -14 -7 -30 -15 -37 -8 -7 -15 -18 -15 -26
0 -21 -122 -139 -160 -154 -27 -12 -91 -15 -288 -16 -139 -1 -255 -3 -257 -6
-3 -3 -6 -200 -8 -439 -2 -413 -3 -436 -22 -469 -53 -92 -95 -141 -160 -188
-35 -24 -169 -72 -204 -72 -11 0 -21 6 -21 13 -4 103 2 1049 7 1095 l6 62 -30
0 c-17 0 -36 -7 -43 -15 -7 -8 -19 -15 -26 -15 -17 0 -98 -41 -102 -52 -2 -4
-10 -8 -18 -8 -19 0 -186 -165 -205 -202 -68 -131 -80 -168 -91 -275 -23 -226
39 -410 192 -564 36 -36 124 -99 139 -99 5 0 14 -7 21 -15 7 -8 23 -15 35 -15
12 0 28 -7 35 -15 7 -8 24 -15 39 -15 14 0 44 -7 66 -15 60 -21 3110 -21 3170
0 22 8 48 15 57 15 65 0 241 142 282 226 10 22 23 48 28 58 14 26 38 142 38
180 0 70 -29 182 -61 236 -5 8 -12 21 -16 29 -3 8 -14 22 -22 30 -9 9 -25 27
-36 41 -11 14 -42 43 -70 64 -27 22 -69 60 -93 85 -43 47 -112 153 -112 174 0
7 -7 21 -15 31 -8 11 -15 31 -15 45 0 14 -7 48 -15 75 -11 35 -15 98 -15 220
0 132 -4 178 -15 200 -8 15 -15 38 -15 51 0 12 -7 28 -15 35 -8 7 -15 20 -15
30 0 10 -7 23 -15 30 -8 7 -15 17 -15 22 0 5 -12 23 -27 40 -88 95 -145 144
-193 163 -8 4 -27 13 -42 21 -14 8 -34 14 -45 14 -10 0 -36 7 -58 15 -51 18
-179 18 -230 0 -22 -8 -48 -15 -58 -15 -11 0 -31 -6 -45 -14 -15 -8 -34 -17
-42 -21 -40 -16 -71 -40 -139 -107 -40 -40 -77 -82 -82 -93 -5 -11 -20 -38
-34 -60 -13 -22 -24 -49 -25 -60 0 -11 -7 -29 -15 -39 -13 -17 -15 -76 -15
-354 l0 -334 -37 5 c-56 8 -131 31 -145 45 -7 7 -20 12 -29 12 -23 0 -140 120
-162 167 -10 21 -25 51 -33 66 -10 21 -14 68 -14 168 0 102 -4 149 -15 176 -8
19 -15 48 -15 63 0 15 -7 33 -15 40 -8 7 -15 21 -15 31 0 9 -7 24 -15 33 -8 8
-15 17 -15 21 0 24 -145 179 -184 196 -12 5 -28 13 -36 18 -48 27 -80 41 -97
41 -10 0 -36 7 -58 15 -22 8 -74 14 -115 14 -41 0 -93 -6 -115 -14z m242 -95
c76 -24 120 -45 151 -74 99 -89 160 -170 186 -246 9 -25 21 -110 27 -190 6
-82 19 -173 30 -210 54 -181 244 -340 407 -340 43 0 56 5 81 29 64 63 65 70
72 371 3 151 10 291 16 310 39 136 178 292 290 326 25 8 52 19 61 26 9 8 51
12 121 12 150 -1 211 -27 325 -138 46 -45 86 -92 90 -104 4 -12 11 -22 16 -22
9 0 34 -78 49 -157 6 -29 11 -101 12 -160 2 -143 4 -176 16 -210 6 -15 15 -49
22 -75 6 -26 28 -82 48 -125 32 -65 59 -99 167 -210 71 -73 138 -149 150 -170
47 -86 60 -157 45 -254 -12 -84 -46 -155 -97 -202 -19 -18 -45 -44 -59 -59
-31 -33 -79 -53 -180 -74 -70 -15 -215 -17 -1480 -18 -1263 -1 -1404 1 -1418
15 -21 21 -13 35 59 99 62 55 124 146 144 210 25 78 33 208 32 482 l-1 286 25
29 24 28 194 6 c205 6 234 12 303 60 56 40 77 59 108 101 37 49 97 192 97 232
0 41 -38 114 -71 139 -34 24 -166 37 -377 36 -223 -1 -238 15 -124 134 9 10
37 32 61 48 111 76 254 98 378 59z m-1216 -924 c6 -21 14 -779 10 -933 -1 -30
-21 -29 -68 1 -131 84 -196 174 -252 347 -18 58 -14 227 8 290 34 101 100 206
152 245 17 12 36 29 42 37 21 25 61 48 81 45 12 -2 23 -14 27 -32z"/>
</g>
</svg>
